<svg width="123" height="94" viewBox="0 0 123 94" fill="none" xmlns="http://www.w3.org/2000/svg">
<path d="M63.7753 55H58.2171C53.5833 55 49.828 51.3112 49.828 46.7596V41.1756C49.828 39.6835 48.5967 38.4702 47.0738 38.4702H41.3891C36.7553 38.4702 33 34.7815 33 30.2298V24.7702C33 20.2185 36.7553 16.5298 41.3891 16.5298H44.6496C45.8464 16.5298 46.8168 17.483 46.8168 18.6586C46.8168 19.8342 45.8464 20.7875 44.6496 20.7875H41.3891C39.1489 20.7875 37.3307 22.5735 37.3307 24.7739V30.2336C37.3307 32.4341 39.1489 34.22 41.3891 34.22H47.0738C50.9864 34.22 54.1625 37.3361 54.1625 41.1831V46.7671C54.1625 48.9676 55.9808 50.7536 58.2209 50.7536H63.7791C66.0192 50.7536 67.8375 48.9676 67.8375 46.7671V42.6375C67.8375 39.1522 66.4565 35.8742 63.9479 33.4099L54.9949 24.6119C51.6692 21.3414 49.8357 16.997 49.8357 12.3738V8.24039C49.8357 3.68877 53.591 0 58.2247 0H63.7829C68.4167 0 72.172 3.68877 72.172 8.24039V13.8244C72.172 15.3165 73.4033 16.5298 74.9262 16.5298H80.6109C85.2447 16.5298 89 20.2185 89 24.7702V30.2298C89 34.7815 85.2447 38.4702 80.6109 38.4702H77.3543C76.1575 38.4702 75.187 37.517 75.187 36.3414C75.187 35.1658 76.1575 34.2125 77.3543 34.2125H80.6109C82.8511 34.2125 84.6693 32.4265 84.6693 30.2261V24.7664C84.6693 22.5659 82.8511 20.78 80.6109 20.78H74.9185C71.0059 20.78 67.8336 17.6639 67.8336 13.8206V8.24039C67.8336 6.03994 66.0154 4.25396 63.7753 4.25396H58.2171C55.9769 4.25396 54.1587 6.03617 54.1587 8.24039V12.37C54.1587 15.8553 55.5396 19.1334 58.0483 21.5976L67.0012 30.3919C70.3308 33.6586 72.1605 38.0068 72.1605 42.63V46.7596C72.1643 51.3075 68.409 55 63.7753 55Z" fill="#A3B899"/>
<path d="M1.88228 87V71.1253H4.92115L11.6792 82.3283H10.0691L16.7138 71.1253H19.73L19.7753 87H16.3282L16.3056 76.4093H16.9406L11.6339 85.3218H9.97837L4.5583 76.4093H5.32936V87H1.88228ZM29.3473 87.1814C27.9563 87.1814 26.7317 86.9093 25.6734 86.365C24.6302 85.8207 23.8214 85.0799 23.2468 84.1426C22.6723 83.1901 22.3851 82.1091 22.3851 80.8996C22.3851 79.675 22.6648 78.594 23.2242 77.6566C23.7987 76.7041 24.5773 75.9633 25.56 75.4342C26.5427 74.8899 27.654 74.6177 28.8937 74.6177C30.0881 74.6177 31.1615 74.8748 32.114 75.3888C33.0816 75.8877 33.8451 76.6134 34.4045 77.5659C34.9639 78.5033 35.2436 79.6296 35.2436 80.9449C35.2436 81.081 35.236 81.2398 35.2209 81.4212C35.2058 81.5875 35.1907 81.7462 35.1755 81.8974H25.2652V79.8337H33.3159L31.9552 80.446C31.9552 79.811 31.8267 79.2592 31.5697 78.7905C31.3127 78.3218 30.9574 77.959 30.5038 77.702C30.0503 77.4298 29.5211 77.2938 28.9164 77.2938C28.3116 77.2938 27.7749 77.4298 27.3062 77.702C26.8527 77.959 26.4974 78.3294 26.2404 78.8132C25.9833 79.2819 25.8548 79.8413 25.8548 80.4914V81.0357C25.8548 81.7009 25.9985 82.2905 26.2857 82.8045C26.5881 83.3035 27.0039 83.689 27.533 83.9611C28.0773 84.2182 28.7123 84.3467 29.438 84.3467C30.0881 84.3467 30.655 84.2484 31.1388 84.0518C31.6378 83.8553 32.0913 83.5605 32.4995 83.1674L34.3818 85.2084C33.8224 85.8434 33.1194 86.3348 32.2727 86.6825C31.4261 87.0151 30.4509 87.1814 29.3473 87.1814ZM42.8376 87.1814C41.6885 87.1814 40.6529 86.9244 39.7307 86.4104C38.8084 85.8812 38.0752 85.148 37.5309 84.2106C37.0017 83.2732 36.7371 82.1696 36.7371 80.8996C36.7371 79.6145 37.0017 78.5033 37.5309 77.5659C38.0752 76.6285 38.8084 75.9028 39.7307 75.3888C40.6529 74.8748 41.6885 74.6177 42.8376 74.6177C43.8656 74.6177 44.7652 74.8445 45.5363 75.2981C46.3073 75.7517 46.9045 76.4396 47.3278 77.3618C47.7512 78.284 47.9628 79.4633 47.9628 80.8996C47.9628 82.3207 47.7587 83.5 47.3505 84.4374C46.9423 85.3596 46.3527 86.0475 45.5816 86.5011C44.8257 86.9546 43.911 87.1814 42.8376 87.1814ZM43.4499 84.2786C44.0244 84.2786 44.546 84.1426 45.0147 83.8704C45.4833 83.5983 45.8537 83.2128 46.1259 82.7138C46.4131 82.1998 46.5568 81.595 46.5568 80.8996C46.5568 80.189 46.4131 79.5843 46.1259 79.0853C45.8537 78.5864 45.4833 78.2009 45.0147 77.9288C44.546 77.6566 44.0244 77.5205 43.4499 77.5205C42.8602 77.5205 42.3311 77.6566 41.8624 77.9288C41.3937 78.2009 41.0157 78.5864 40.7285 79.0853C40.4564 79.5843 40.3203 80.189 40.3203 80.8996C40.3203 81.595 40.4564 82.1998 40.7285 82.7138C41.0157 83.2128 41.3937 83.5983 41.8624 83.8704C42.3311 84.1426 42.8602 84.2786 43.4499 84.2786ZM46.6475 87V84.5054L46.7155 80.8769L46.4887 77.2711V70.1728H50.0265V87H46.6475ZM53.5503 87V71.1253H56.5892L63.3473 82.3283H61.7371L68.3818 71.1253H71.398L71.4434 87H67.9963L67.9736 76.4093H68.6086L63.3019 85.3218H61.6464L56.2263 76.4093H56.9974V87H53.5503ZM82.444 87V84.6188L82.2172 84.0972V79.8337C82.2172 79.0778 81.9829 78.4881 81.5142 78.0648C81.0606 77.6415 80.3576 77.4298 79.4051 77.4298C78.755 77.4298 78.1125 77.5357 77.4775 77.7473C76.8576 77.9439 76.3285 78.216 75.89 78.5637L74.6201 76.0918C75.2853 75.6231 76.0866 75.2603 77.0239 75.0033C77.9613 74.7463 78.9138 74.6177 79.8814 74.6177C81.741 74.6177 83.1848 75.0562 84.2129 75.9331C85.241 76.81 85.755 78.1782 85.755 80.0378V87H82.444ZM78.7248 87.1814C77.7723 87.1814 76.9559 87.0227 76.2756 86.7052C75.5952 86.3726 75.0736 85.9266 74.7108 85.3672C74.3479 84.8078 74.1665 84.1804 74.1665 83.4849C74.1665 82.7592 74.3404 82.1242 74.6881 81.5799C75.0509 81.0357 75.6179 80.6123 76.389 80.31C77.16 79.9925 78.1654 79.8337 79.4051 79.8337H82.6481V81.8974H79.7907C78.9591 81.8974 78.3846 82.0335 78.0671 82.3056C77.7648 82.5778 77.6136 82.9179 77.6136 83.3261C77.6136 83.7797 77.7874 84.1426 78.1352 84.4147C78.498 84.6717 78.9894 84.8002 79.6092 84.8002C80.1989 84.8002 80.728 84.6642 81.1967 84.392C81.6654 84.1048 82.0056 83.689 82.2172 83.1447L82.7615 84.7775C82.5045 85.5637 82.0358 86.1609 81.3555 86.5691C80.6751 86.9773 79.7982 87.1814 78.7248 87.1814ZM96.1685 87.1814C95.1405 87.1814 94.2409 86.9546 93.4698 86.5011C92.6988 86.0475 92.094 85.3596 91.6556 84.4374C91.2323 83.5 91.0206 82.3207 91.0206 80.8996C91.0206 79.4633 91.2247 78.284 91.6329 77.3618C92.0411 76.4396 92.6307 75.7517 93.4018 75.2981C94.1729 74.8445 95.0951 74.6177 96.1685 74.6177C97.3176 74.6177 98.3456 74.8823 99.2528 75.4115C100.175 75.9255 100.901 76.6512 101.43 77.5886C101.974 78.5259 102.246 79.6296 102.246 80.8996C102.246 82.1847 101.974 83.2959 101.43 84.2333C100.901 85.1706 100.175 85.8963 99.2528 86.4104C98.3456 86.9244 97.3176 87.1814 96.1685 87.1814ZM88.9569 91.3996V74.7992H92.3359V77.2938L92.2679 80.9223L92.4947 84.5281V91.3996H88.9569ZM95.5562 84.2786C96.1459 84.2786 96.6675 84.1426 97.121 83.8704C97.5897 83.5983 97.9601 83.2128 98.2322 82.7138C98.5195 82.1998 98.6631 81.595 98.6631 80.8996C98.6631 80.189 98.5195 79.5843 98.2322 79.0853C97.9601 78.5864 97.5897 78.2009 97.121 77.9288C96.6675 77.6566 96.1459 77.5205 95.5562 77.5205C94.9666 77.5205 94.4374 77.6566 93.9688 77.9288C93.5001 78.2009 93.1297 78.5864 92.8575 79.0853C92.5854 79.5843 92.4493 80.189 92.4493 80.8996C92.4493 81.595 92.5854 82.1998 92.8575 82.7138C93.1297 83.2128 93.5001 83.5983 93.9688 83.8704C94.4374 84.1426 94.9666 84.2786 95.5562 84.2786ZM108.719 87.1814C107.676 87.1814 106.671 87.0605 105.703 86.8186C104.751 86.5616 103.995 86.2441 103.435 85.8661L104.615 83.3261C105.174 83.6739 105.832 83.9611 106.588 84.1879C107.359 84.3996 108.115 84.5054 108.855 84.5054C109.672 84.5054 110.246 84.4071 110.579 84.2106C110.927 84.014 111.1 83.7419 111.1 83.3942C111.1 83.1069 110.964 82.8953 110.692 82.7592C110.435 82.608 110.088 82.4946 109.649 82.419C109.211 82.3434 108.727 82.2678 108.198 82.1922C107.684 82.1166 107.162 82.0184 106.633 81.8974C106.104 81.7614 105.62 81.5648 105.181 81.3078C104.743 81.0508 104.388 80.703 104.116 80.2646C103.859 79.8262 103.73 79.2592 103.73 78.5637C103.73 77.7927 103.949 77.1123 104.388 76.5227C104.841 75.9331 105.491 75.472 106.338 75.1393C107.185 74.7916 108.198 74.6177 109.377 74.6177C110.208 74.6177 111.055 74.7085 111.917 74.8899C112.779 75.0713 113.497 75.3359 114.071 75.6836L112.892 78.2009C112.302 77.8532 111.705 77.6188 111.1 77.4979C110.511 77.3618 109.936 77.2938 109.377 77.2938C108.591 77.2938 108.016 77.3996 107.653 77.6113C107.291 77.8229 107.109 78.0951 107.109 78.4277C107.109 78.73 107.238 78.9568 107.495 79.108C107.767 79.2592 108.122 79.3801 108.561 79.4709C108.999 79.5616 109.475 79.6447 109.989 79.7203C110.518 79.7808 111.048 79.8791 111.577 80.0151C112.106 80.1512 112.582 80.3478 113.005 80.6048C113.444 80.8467 113.799 81.1868 114.071 81.6253C114.343 82.0486 114.48 82.608 114.48 83.3035C114.48 84.0594 114.253 84.7322 113.799 85.3218C113.346 85.8963 112.688 86.3499 111.826 86.6825C110.98 87.0151 109.944 87.1814 108.719 87.1814Z" fill="#A3B899"/>
</svg>
